# xmcd
#
# Track frame offsets: 
#        150
#        3030
#        19535
#        33326
#        48856
#        64629
#        83027
#        96002
#        109705
#        126489
#        145336
#        157886
#        170736
#        187606
#
# Disc length: 2706 seconds
#
# Revision: 0
# Processed by: cddbd v1.5.2PL0 Copyright (c) Steve Scherf et al.
# Submitted via: ExactAudioCopy v0.99pb4
#
DISCID=a00a900e
DTITLE=Valdomiro Maicá - Pra Que Saibam Quem Eu Sou
DYEAR=2008
DGENRE=Nativista
TTITLE0=Introdução
TTITLE1=Historia De Quem Produz
TTITLE2=À Luz Da Lamparina
TTITLE3=Alma Guitarreira
TTITLE4=Bochincheando
TTITLE5=Um Grito De Alerta
TTITLE6=Bailanta Do Sapucay
TTITLE7=Negro
TTITLE8=Pra Que Saibam Quem Eu Sou
TTITLE9=Rio Grande Dos Alambrados
TTITLE10=Saudade
TTITLE11=Só Por Gauchada
TTITLE12=Ùltima Tarefa
TTITLE13=Para Olvidar
EXTD=
EXTT0=
EXTT1=
EXTT2=
EXTT3=
EXTT4=
EXTT5=
EXTT6=
EXTT7=
EXTT8=
EXTT9=
EXTT10=
EXTT11=
EXTT12=
EXTT13=
PLAYORDER=
